<svg xmlns="http://www.w3.org/2000/svg" xmlns:xlink="http://www.w3.org/1999/xlink" width="573" height="541.999" viewBox="0 0 573 541.999">
  <defs>
    <filter id="card-01" x="0" y="0" width="573" height="541.999" filterUnits="userSpaceOnUse">
      <feOffset dy="3" input="SourceAlpha"/>
      <feGaussianBlur stdDeviation="3" result="blur"/>
      <feFlood flood-opacity="0.161"/>
      <feComposite operator="in" in2="blur"/>
      <feComposite in="SourceGraphic"/>
    </filter>
  </defs>
  <g transform="matrix(1, 0, 0, 1, 0, 0)" filter="url(#card-01)">
    <g id="card-01-2" data-name="card-01" transform="translate(11205 3)" fill="#fff">
      <path d="M -10649.0009765625 525.999755859375 L -11188.0009765625 525.999755859375 C -11191.8603515625 525.999755859375 -11195.0009765625 522.8597412109375 -11195.0009765625 519.0001831054688 L -11195.0009765625 91.99930572509766 C -11195.0009765625 88.13973236083984 -11191.8603515625 84.99973297119141 -11188.0009765625 84.99973297119141 L -11065.0009765625 84.99973297119141 C -11058.98828125 84.99973297119141 -11053.080078125 83.40980529785156 -11047.9140625 80.40187835693359 C -11042.90234375 77.48323059082031 -11038.689453125 73.30230712890625 -11035.73046875 68.31095123291016 C -11035.328125 67.63937377929688 -11034.9326171875 66.91566467285156 -11034.5556640625 66.16394805908203 C -11034.45703125 65.96573638916016 -11034.3583984375 65.76844787597656 -11034.2607421875 65.57123565673828 C -11033.271484375 63.58609008789063 -11032.2490234375 61.53330612182617 -11031.0859375 59.6248779296875 C -11029.318359375 56.72287750244141 -11027.341796875 53.85523223876953 -11025.2099609375 51.10187530517578 C -11014.2939453125 37.01323318481445 -10998.8359375 25.21559143066406 -10980.5078125 16.98480606079102 C -10971.20703125 12.8077335357666 -10961.24609375 9.581948280334473 -10950.90234375 7.397162437438965 C -10940.2333984375 5.143519401550293 -10929.1630859375 4.000876426696777 -10918 4.000876426696777 C -10906.8369140625 4.000876426696777 -10895.767578125 5.143519401550293 -10885.0986328125 7.397162437438965 C -10874.7548828125 9.581948280334473 -10864.7939453125 12.8077335357666 -10855.4921875 16.98480606079102 C -10837.1630859375 25.21587753295898 -10821.7060546875 37.01351928710938 -10810.791015625 51.10223388671875 C -10808.6474609375 53.87258911132813 -10806.669921875 56.73994827270508 -10804.916015625 59.6243782043457 C -10803.7421875 61.55187606811523 -10802.708984375 63.62480545043945 -10801.7099609375 65.62944793701172 L -10801.443359375 66.16287994384766 C -10801.0712890625 66.90538024902344 -10800.677734375 67.62815856933594 -10800.2705078125 68.31216430664063 C -10797.3115234375 73.30237579345703 -10793.09765625 77.48330688476563 -10788.0849609375 80.40187835693359 C -10782.919921875 83.40980529785156 -10777.01171875 84.99973297119141 -10771.0009765625 84.99973297119141 L -10649.0009765625 84.99973297119141 C -10645.1416015625 84.99973297119141 -10642.0009765625 88.13973236083984 -10642.0009765625 91.99930572509766 L -10642.0009765625 519.0001831054688 C -10642.0009765625 522.8597412109375 -10645.1416015625 525.999755859375 -10649.0009765625 525.999755859375 Z" stroke="none"/>
      <path d="M -10649.0009765625 524.999755859375 C -10645.6923828125 524.999755859375 -10643.0009765625 522.3082885742188 -10643.0009765625 519.0001831054688 L -10643.0009765625 91.99930572509766 C -10643.0009765625 88.691162109375 -10645.6923828125 85.99973297119141 -10649.0009765625 85.99973297119141 L -10771.0009765625 85.99973297119141 C -10777.1884765625 85.99973297119141 -10783.2705078125 84.36287689208984 -10788.5888671875 81.26609039306641 C -10793.7470703125 78.26194763183594 -10798.0849609375 73.95858764648438 -10801.1298828125 68.82323455810547 C -10801.548828125 68.11865997314453 -10801.955078125 67.37451934814453 -10802.337890625 66.60958862304688 L -10802.6044921875 66.07559204101563 C -10803.5947265625 64.08951568603516 -10804.6181640625 62.0358772277832 -10805.7705078125 60.14402008056641 C -10807.5048828125 57.29144668579102 -10809.4609375 54.45523452758789 -10811.58203125 51.71466064453125 C -10822.396484375 37.75516128540039 -10837.72265625 26.0611629486084 -10855.90234375 17.89702033996582 C -10865.138671875 13.7491626739502 -10875.03125 10.54566192626953 -10885.3046875 8.375519752502441 C -10895.90625 6.136305332183838 -10906.90625 5.000876426696777 -10918 5.000876426696777 C -10929.09375 5.000876426696777 -10940.0947265625 6.136305332183838 -10950.6953125 8.375519752502441 C -10960.9697265625 10.54566192626953 -10970.8623046875 13.74909114837646 -10980.0986328125 17.89702033996582 C -10998.27734375 26.06087684631348 -11013.603515625 37.75487518310547 -11024.4189453125 51.71401977539063 C -11026.5283203125 54.43809127807617 -11028.4833984375 57.27473449707031 -11030.232421875 60.14501953125 C -11031.3720703125 62.01723480224609 -11032.3408203125 63.96016311645508 -11033.365234375 66.01715850830078 C -11033.4638671875 66.21466064453125 -11033.5625 66.41216278076172 -11033.662109375 66.61158752441406 C -11034.0478515625 67.38280487060547 -11034.4541015625 68.12606811523438 -11034.8701171875 68.82087707519531 C -11037.9150390625 73.9583740234375 -11042.251953125 78.26187896728516 -11047.4111328125 81.26609039306641 C -11052.7294921875 84.36287689208984 -11058.8125 85.99973297119141 -11065.0009765625 85.99973297119141 L -11188.0009765625 85.99973297119141 C -11191.3095703125 85.99973297119141 -11194.0009765625 88.691162109375 -11194.0009765625 91.99930572509766 L -11194.0009765625 519.0001831054688 C -11194.0009765625 522.3082885742188 -11191.3095703125 524.999755859375 -11188.0009765625 524.999755859375 L -10649.0009765625 524.999755859375 M -10649.0009765625 526.999755859375 L -11188.0009765625 526.999755859375 C -11192.41796875 526.999755859375 -11196.0009765625 523.4171752929688 -11196.0009765625 519.0001831054688 L -11196.0009765625 91.99930572509766 C -11196.0009765625 87.58230590820313 -11192.41796875 83.99973297119141 -11188.0009765625 83.99973297119141 L -11065.0009765625 83.99973297119141 C -11052.91015625 83.99973297119141 -11042.33984375 77.50058746337891 -11036.5908203125 67.80109405517578 C -11036.18359375 67.12116241455078 -11035.8046875 66.42430877685547 -11035.4501953125 65.71623229980469 C -11034.3349609375 63.48237609863281 -11033.2392578125 61.23737716674805 -11031.9404296875 59.10473251342773 C -11030.1396484375 56.14873504638672 -11028.15625 53.2743034362793 -11026.0009765625 50.48980331420898 C -11003.94921875 22.02902030944824 -10963.8310546875 3.000876665115356 -10918 3.000876665115356 C -10872.1708984375 3.000876665115356 -10832.0498046875 22.02902030944824 -10810.0009765625 50.48980331420898 C -10807.845703125 53.2743034362793 -10805.859375 56.14873504638672 -10804.0615234375 59.10473251342773 C -10802.7626953125 61.23737716674805 -10801.6640625 63.48237609863281 -10800.548828125 65.71623229980469 C -10800.1943359375 66.42430877685547 -10799.8154296875 67.12116241455078 -10799.4111328125 67.80109405517578 C -10793.6591796875 77.50058746337891 -10783.0888671875 83.99973297119141 -10771.0009765625 83.99973297119141 L -10649.0009765625 83.99973297119141 C -10644.5810546875 83.99973297119141 -10641.0009765625 87.58230590820313 -10641.0009765625 91.99930572509766 L -10641.0009765625 519.0001831054688 C -10641.0009765625 523.4171752929688 -10644.5810546875 526.999755859375 -10649.0009765625 526.999755859375 Z" stroke="none" fill="#ff663f"/>
    </g>
  </g>
</svg>
