<svg xmlns="http://www.w3.org/2000/svg" xmlns:xlink="http://www.w3.org/1999/xlink" width="32" height="32" viewBox="0 0 32 32">
  <defs>
    <linearGradient id="linear-gradient" x1="0.5" x2="0.5" y2="1" gradientUnits="objectBoundingBox">
      <stop offset="0" stop-color="#ff663f"/>
      <stop offset="1" stop-color="#bc3210"/>
    </linearGradient>
  </defs>
  <path id="mail" d="M32,29a3,3,0,0,1-3,3H3a3,3,0,0,1-3-3V12.545a3,3,0,0,1,1.149-2.361C2.706,8.964,3.993,7.974,11.412,2.59,12.463,1.823,14.55-.022,16,0c1.45-.022,3.537,1.823,4.588,2.59,7.418,5.384,8.706,6.375,10.262,7.594A3,3,0,0,1,32,12.545ZM27.9,16.712a.5.5,0,0,0-.709-.119c-1.428,1.055-3.466,2.544-6.6,4.817C19.537,22.177,17.45,24.022,16,24c-1.451.021-3.535-1.821-4.588-2.589-3.132-2.273-5.171-3.763-6.6-4.817a.5.5,0,0,0-.709.119l-.567.825a.5.5,0,0,0,.115.685c1.43,1.056,3.466,2.543,6.581,4.8C11.5,23.95,13.766,26.015,16,26c2.233.015,4.5-2.048,5.766-2.973,3.116-2.261,5.151-3.748,6.581-4.8a.5.5,0,0,0,.115-.685Z" transform="translate(0 0)" fill="url(#linear-gradient)"/>
</svg>
