<svg xmlns="http://www.w3.org/2000/svg" xmlns:xlink="http://www.w3.org/1999/xlink" width="20" height="32" viewBox="0 0 20 32">
  <defs>
    <linearGradient id="linear-gradient" x1="0.5" x2="0.5" y2="1" gradientUnits="objectBoundingBox">
      <stop offset="0" stop-color="#ff663f"/>
      <stop offset="1" stop-color="#bc3210"/>
    </linearGradient>
  </defs>
  <path id="mobile" d="M17,0H3A3,3,0,0,0,0,3V29a3,3,0,0,0,3,3H17a3,3,0,0,0,3-3V3A3,3,0,0,0,17,0ZM10,30a2,2,0,1,1,2-2A2,2,0,0,1,10,30Zm7-6.75a.752.752,0,0,1-.75.75H3.75A.752.752,0,0,1,3,23.25V3.75A.752.752,0,0,1,3.75,3h12.5a.752.752,0,0,1,.75.75Z" fill="url(#linear-gradient)"/>
</svg>
