<svg xmlns="http://www.w3.org/2000/svg" xmlns:xlink="http://www.w3.org/1999/xlink" width="24.002" height="24.001" viewBox="0 0 24.002 24.001">
  <defs>
    <linearGradient id="linear-gradient" x1="0.5" x2="0.5" y2="1" gradientUnits="objectBoundingBox">
      <stop offset="0" stop-color="#ff663f"/>
      <stop offset="1" stop-color="#bc3210"/>
    </linearGradient>
  </defs>
  <g id="paddle" transform="translate(-647.999 -724)">
    <path id="Union_15" data-name="Union 15" d="M-15252.928,67.692a.934.934,0,0,1-.015-1.3l-9.091-9.091-9.091,9.091a.939.939,0,0,1-.016,1.3.938.938,0,0,1-.667.276.933.933,0,0,1-.663-.276l-1.288-1.288a.941.941,0,0,1,0-1.33.936.936,0,0,1,1.3-.015l9.091-9.091-.692-.692a.431.431,0,0,1-.521-.069l-1.617-1.618a2.75,2.75,0,0,1-2.787-.667l-3.365-3.362,3.906-3.906,3.365,3.366a2.757,2.757,0,0,1,.667,2.783l1.618,1.618a.44.44,0,0,1,.064.525l.692.692.691-.692a.436.436,0,0,1,.065-.525l1.618-1.618a2.741,2.741,0,0,1,.667-2.783l3.365-3.366,3.906,3.906-3.366,3.362a2.747,2.747,0,0,1-2.786.667l-1.618,1.618a.43.43,0,0,1-.521.069l-.691.692,9.091,9.091a.934.934,0,0,1,1.3.015.939.939,0,0,1,0,1.33l-1.287,1.288a.933.933,0,0,1-.664.276A.942.942,0,0,1-15252.928,67.692ZM-15254.5,44.7l.613-.613a.423.423,0,0,1,.6,0l3.128,3.128a.418.418,0,0,1,0,.594l-.613.613Zm-19.416,3.109a.42.42,0,0,1,0-.594l3.132-3.128a.419.419,0,0,1,.595,0l.613.613-3.727,3.722Z" transform="translate(15922.033 680.033)" fill="url(#linear-gradient)"/>
  </g>
</svg>
