<svg xmlns="http://www.w3.org/2000/svg" width="24" height="24" viewBox="0 0 24 24">
  <g id="paddle-white" transform="translate(-648 -724)">
    <g id="Group_101" data-name="Group 101" transform="translate(648 724)">
      <path id="XMLID_79_" d="M14.02,39.93a.435.435,0,0,0,.523-.067l1.617-1.617a2.75,2.75,0,0,0,2.786-.667l3.365-3.365-3.9-3.9-3.365,3.365a2.75,2.75,0,0,0-.667,2.786l-1.617,1.617a.435.435,0,0,0-.066.524L1.579,49.713a.937.937,0,0,0-1.3,1.346l1.288,1.287a.937.937,0,0,0,1.346-1.3Z" transform="translate(0.001 -28.621)" fill="#fff"/>
      <path id="XMLID_80_" d="M326.5,4.771a.42.42,0,0,0,0-.594l-3.129-3.13a.42.42,0,0,0-.594,0l-.614.614,3.724,3.724Z" transform="translate(-302.624 -0.923)" fill="#fff"/>
    </g>
    <g id="Group_102" data-name="Group 102" transform="translate(648 724)">
      <path id="XMLID_79_2" data-name="XMLID_79_" d="M8.29,39.93a.435.435,0,0,1-.523-.067L6.149,38.246a2.75,2.75,0,0,1-2.786-.667L0,34.214l3.9-3.9,3.365,3.365a2.75,2.75,0,0,1,.667,2.786l1.617,1.617a.435.435,0,0,1,.066.524L20.731,49.713a.937.937,0,0,1,1.3,1.346l-1.288,1.287a.937.937,0,0,1-1.346-1.3Z" transform="translate(1.689 -28.621)" fill="#fff"/>
      <path id="XMLID_80_2" data-name="XMLID_80_" d="M322.286,4.771a.42.42,0,0,1,0-.594l3.129-3.13a.42.42,0,0,1,.594,0l.614.614L322.9,5.385Z" transform="translate(-322.163 -0.923)" fill="#fff"/>
    </g>
  </g>
</svg>
