<svg xmlns="http://www.w3.org/2000/svg" xmlns:xlink="http://www.w3.org/1999/xlink" width="312" height="100" viewBox="0 0 312 100">
  <defs>
    <filter id="wave-element-01" x="0" y="0" width="312" height="100" filterUnits="userSpaceOnUse">
      <feOffset dy="-3" input="SourceAlpha"/>
      <feGaussianBlur stdDeviation="3" result="blur"/>
      <feFlood flood-opacity="0.161"/>
      <feComposite operator="in" in2="blur"/>
      <feComposite in="SourceGraphic"/>
    </filter>
  </defs>
  <g transform="matrix(1, 0, 0, 1, 0, 0)" filter="url(#wave-element-01)">
    <path id="wave-element-01-2" data-name="wave-element-01" d="M1053.59,767.8q-.607-1.02-1.139-2.084c-1.115-2.233-2.213-4.478-3.511-6.61a93.408,93.408,0,0,0-5.94-8.616C1020.95,722.03,980.83,703,935,703s-85.95,19.03-108,47.49a93.421,93.421,0,0,0-5.94,8.616c-1.3,2.132-2.4,4.377-3.511,6.61q-.531,1.063-1.139,2.084A32.985,32.985,0,0,1,788,784h294A32.985,32.985,0,0,1,1053.59,767.8Z" transform="translate(-779 -690.5)" fill="#fff" stroke="rgba(0,0,0,0)" stroke-width="1"/>
  </g>
</svg>
