<?xml version="1.0" encoding="utf-8"?>
<!-- Generator: Adobe Illustrator 22.1.0, SVG Export Plug-In . SVG Version: 6.00 Build 0)  -->
<svg version="1.1" id="Слой_1" xmlns="http://www.w3.org/2000/svg" xmlns:xlink="http://www.w3.org/1999/xlink" x="0px" y="0px"
	 viewBox="0 0 320 81" style="enable-background:new 0 0 320 81;" xml:space="preserve">
<style type="text/css">
	.st0{fill:none;}
	.st1{fill:#FF663F;}
	.st2{fill:#FFFFFF;}
</style>
<g>
	<g>
		<path class="st0" d="M299.9,77.7c-0.1-0.1-0.2-0.1-0.3-0.2C299.7,77.6,299.8,77.6,299.9,77.7z"/>
		<path class="st0" d="M301.8,78.7c-0.2-0.1-0.4-0.2-0.6-0.3C301.4,78.5,301.6,78.6,301.8,78.7z"/>
		<path class="st0" d="M301.2,78.4c-0.3-0.2-0.6-0.3-0.9-0.5C300.6,78.1,300.9,78.2,301.2,78.4z"/>
		<path class="st0" d="M298.7,77C298.7,77,298.7,77,298.7,77C298.7,77,298.7,77,298.7,77z"/>
		<path class="st1" d="M301.8,78.7C301.8,78.7,301.8,78.7,301.8,78.7C301.8,78.7,301.8,78.7,301.8,78.7z"/>
		<path class="st1" d="M301.2,78.4C301.2,78.4,301.2,78.4,301.2,78.4C301.2,78.4,301.2,78.4,301.2,78.4z"/>
		<path class="st1" d="M320,81h-12.6c-1.7-0.6-3.4-1.2-5.1-2c0,0-0.1,0-0.1,0c0,0,0,0-0.1,0c0,0-0.1,0-0.2-0.1
			c-0.2-0.1-0.5-0.3-0.7-0.4c-0.1,0-0.1,0-0.1-0.1c0,0,0,0-0.1,0c-0.3-0.2-0.6-0.3-0.9-0.5c-0.1-0.1-0.3-0.1-0.4-0.2
			c-0.1-0.1-0.2-0.1-0.3-0.2c-0.3-0.2-0.6-0.3-0.8-0.5c0,0,0,0,0,0c-3.2-2-6.1-4.4-8.6-7.3c-1.1-1.2-2.1-2.5-2.9-3.9
			c-0.5-0.7-0.9-1.5-1.3-2.2l-0.3-0.5c-1.1-2-2.2-4-3.4-5.9c-1.9-2.9-4-5.7-6.3-8.4c-11.8-14-28.5-25.7-48.2-33.8
			c-10-4.1-20.8-7.3-32-9.5C184.1,3.1,172.1,2,160,2h0V0h0c49.9,0,93.5,19,117.5,47.5c2.3,2.8,4.5,5.7,6.5,8.6
			c1.4,2.1,2.6,4.4,3.8,6.6c0.4,0.7,0.8,1.4,1.2,2.1C295.3,74.5,306.8,81,320,81z"/>
		<path class="st1" d="M300.3,77.9c-0.1-0.1-0.3-0.1-0.4-0.2C300,77.8,300.1,77.8,300.3,77.9z"/>
		<path class="st1" d="M299.6,77.5c-0.3-0.2-0.6-0.3-0.8-0.5C299,77.2,299.3,77.3,299.6,77.5z"/>
	</g>
	<g>
		<path class="st0" d="M20.1,77.7c0.1-0.1,0.2-0.1,0.3-0.2C20.3,77.6,20.2,77.6,20.1,77.7z"/>
		<path class="st0" d="M18.2,78.7c0.2-0.1,0.4-0.2,0.6-0.3C18.6,78.5,18.4,78.6,18.2,78.7z"/>
		<path class="st0" d="M18.8,78.4c0.3-0.2,0.6-0.3,0.9-0.5C19.4,78.1,19.1,78.2,18.8,78.4z"/>
		<path class="st0" d="M21.3,77C21.3,77,21.3,77,21.3,77C21.3,77,21.3,77,21.3,77z"/>
		<path class="st2" d="M307.4,81H12.6c1.7-0.6,3.4-1.2,5.1-2h284.7C304,79.8,305.7,80.4,307.4,81z"/>
		<path class="st1" d="M18.2,78.7C18.2,78.7,18.2,78.7,18.2,78.7C18.2,78.7,18.2,78.7,18.2,78.7z"/>
		<path class="st1" d="M18.8,78.4C18.8,78.4,18.8,78.4,18.8,78.4C18.8,78.4,18.8,78.4,18.8,78.4z"/>
		<path class="st1" d="M160,0v2h0c-12.1,0-24,1.1-35.6,3.4c-11.2,2.2-22,5.4-32,9.5c-19.8,8.2-36.5,19.9-48.2,33.8
			c-2.3,2.7-4.4,5.6-6.3,8.4c-1.2,1.9-2.4,3.9-3.4,5.9l-0.3,0.5c-0.4,0.7-0.8,1.5-1.3,2.2c-0.9,1.4-1.9,2.7-2.9,3.9
			c-2.5,2.8-5.4,5.3-8.6,7.3c0,0,0,0,0,0c-0.3,0.2-0.6,0.3-0.8,0.5c-0.1,0.1-0.2,0.1-0.3,0.2c-0.1,0.1-0.3,0.1-0.4,0.2
			c-0.3,0.2-0.6,0.3-0.9,0.5c0,0,0,0-0.1,0c0,0-0.1,0-0.1,0.1c-0.2,0.1-0.5,0.2-0.7,0.4c-0.1,0-0.1,0.1-0.2,0.1c0,0,0,0-0.1,0
			c0,0-0.1,0-0.1,0c-1.6,0.8-3.3,1.4-5.1,2H0c13.2,0,24.7-6.5,30.9-16.2c0.4-0.7,0.9-1.4,1.2-2.1c1.2-2.2,2.4-4.5,3.8-6.6
			c2-3,4.1-5.8,6.5-8.6C66.4,19,110.1,0,160,0L160,0z"/>
		<path class="st1" d="M19.7,77.9c0.1-0.1,0.3-0.1,0.4-0.2C20,77.8,19.9,77.8,19.7,77.9z"/>
		<path class="st1" d="M20.4,77.5c0.3-0.2,0.6-0.3,0.8-0.5C21,77.2,20.7,77.3,20.4,77.5z"/>
	</g>
</g>
</svg>
