<?xml version="1.0" encoding="utf-8"?>
<!-- Generator: Adobe Illustrator 22.1.0, SVG Export Plug-In . SVG Version: 6.00 Build 0)  -->
<svg version="1.1" id="Слой_1" xmlns="http://www.w3.org/2000/svg" xmlns:xlink="http://www.w3.org/1999/xlink" x="0px" y="0px"
	 viewBox="0 0 294 81" style="enable-background:new 0 0 294 81;" xml:space="preserve">
<style type="text/css">
	.st0{fill:#FFFFFF;}
	.st1{fill:#FF663F;}
</style>
<g>
	<g>
		<path class="st0" d="M292.5,81H1.5c1.7-0.6,3.4-1.3,5-2.1h281C289.1,79.7,290.7,80.4,292.5,81z"/>
		<path class="st0" d="M7.1,78.5C7.1,78.5,7.1,78.5,7.1,78.5C7.1,78.5,7.1,78.5,7.1,78.5z"/>
	</g>
	<path class="st1" d="M293.9,79c-12.1,0-22.7-4.5-28.5-14.2c-0.4-0.7-0.8-1.4-1.1-2.1c-1.1-2.2-2.2-4.5-3.5-6.6
		c-1.8-3-3.8-5.8-5.9-8.6C232.9,19,192.8,0,147,0h0h0C101.2,0,61.1,19,39.1,47.5c-2.1,2.8-4.1,5.7-5.9,8.6c-1.3,2.1-2.4,4.4-3.5,6.6
		c-0.3,0.7-0.7,1.4-1.1,2.1C22.8,74.4,12.2,79,0.1,79L0,81c0,0,8.7,0.1,11.5-0.3c1.7-0.3,3.3-0.9,4.8-1.7c0,0,0,0,0.1,0
		c0,0,0,0,0.1,0c0,0,0.1,0,0.1-0.1c0.2-0.1,0.5-0.3,0.6-0.4c0,0,0.1,0,0.1-0.1c0,0,0,0,0.1,0c0.3-0.2,0.6-0.3,0.8-0.5
		c0.1-0.1,0.2-0.1,0.4-0.2c0.1-0.1,0.2-0.1,0.3-0.2c0.2-0.1,0.3-0.2,0.5-0.3c-0.2,0.1-0.3,0.2-0.5,0.3c0.2-0.1,0.3-0.2,0.5-0.3
		c0.1-0.1,0.2-0.1,0.3-0.2c0,0,0,0,0,0c2.9-2,5.6-4.4,7.9-7.2c1-1.2,1.9-2.5,2.7-3.9c0.4-0.7,0.8-1.5,1.2-2.2l0.3-0.5
		c1-2,2-4,3.1-5.9c1.7-2.9,3.7-5.7,5.8-8.4C51.5,34.7,66.8,23,85,14.9c9.2-4.1,19.1-7.3,29.4-9.5C124.9,3.1,135.9,2,147,2h0h0
		c11.1,0,22.1,1.1,32.7,3.4c10.3,2.2,20.1,5.4,29.4,9.5c18.2,8.2,33.5,19.8,44.3,33.8c2.1,2.7,4.1,5.6,5.8,8.4
		c1.1,1.9,2.2,3.9,3.1,5.9l0.3,0.5c0.4,0.7,0.8,1.5,1.2,2.2c0.8,1.4,1.7,2.7,2.7,3.9c2.3,2.8,4.9,5.3,7.9,7.2c0,0,0,0,0,0
		c0.1,0.1,0.2,0.1,0.3,0.2c0.2,0.1,0.3,0.2,0.5,0.3c-0.2-0.1-0.3-0.2-0.5-0.3c0.2,0.1,0.3,0.2,0.5,0.3c0.1,0.1,0.2,0.1,0.3,0.2
		c0.1,0.1,0.2,0.1,0.4,0.2c0.3,0.2,0.6,0.3,0.8,0.5c0,0,0,0,0.1,0c0,0,0.1,0,0.1,0.1c0.2,0.1,0.4,0.2,0.6,0.4c0.1,0,0.1,0.1,0.1,0.1
		c0,0,0,0,0.1,0c0,0,0.1,0,0.1,0c1.5,0.8,3.1,1.4,4.8,1.7C285.3,81.1,294,81,294,81L293.9,79z"/>
</g>
</svg>
