<?xml version="1.0" encoding="utf-8"?>
<!-- Generator: Adobe Illustrator 22.1.0, SVG Export Plug-In . SVG Version: 6.00 Build 0)  -->
<svg version="1.1" id="Слой_1" xmlns="http://www.w3.org/2000/svg" xmlns:xlink="http://www.w3.org/1999/xlink" x="0px" y="0px"
	 viewBox="0 0 294 81" style="enable-background:new 0 0 294 81;" xml:space="preserve">
<style type="text/css">
	.st0{fill:none;}
	.st1{fill:#FF663F;}
	.st2{fill:#FFFFFF;}
</style>
<g>
	<g>
		<path class="st0" d="M275.5,77.7c-0.1-0.1-0.2-0.1-0.3-0.2C275.3,77.6,275.4,77.6,275.5,77.7z"/>
		<path class="st0" d="M277.3,78.7c-0.2-0.1-0.3-0.2-0.5-0.3C276.9,78.5,277.1,78.6,277.3,78.7z"/>
		<path class="st0" d="M276.7,78.4c-0.3-0.2-0.6-0.3-0.8-0.5C276.1,78.1,276.4,78.2,276.7,78.4z"/>
		<path class="st0" d="M274.5,77C274.5,77,274.5,77,274.5,77C274.5,77,274.5,77,274.5,77z"/>
		<path class="st1" d="M277.3,78.7C277.3,78.7,277.3,78.7,277.3,78.7C277.3,78.7,277.3,78.7,277.3,78.7z"/>
		<path class="st1" d="M276.8,78.4C276.7,78.4,276.7,78.4,276.8,78.4C276.7,78.4,276.7,78.4,276.8,78.4z"/>
		<path class="st1" d="M294,81h-11.6c-1.6-0.6-3.2-1.2-4.6-2c0,0,0,0-0.1,0c0,0,0,0-0.1,0c0,0-0.1,0-0.1-0.1
			c-0.2-0.1-0.5-0.3-0.6-0.4c0,0-0.1,0-0.1-0.1c0,0,0,0-0.1,0c-0.3-0.2-0.6-0.3-0.8-0.5c-0.1-0.1-0.2-0.1-0.4-0.2
			c-0.1-0.1-0.2-0.1-0.3-0.2c-0.3-0.2-0.5-0.3-0.8-0.5c0,0,0,0,0,0c-2.9-2-5.6-4.4-7.9-7.3c-1-1.2-1.9-2.5-2.7-3.9
			c-0.4-0.7-0.8-1.5-1.2-2.2l-0.3-0.5c-1-2-2-4-3.1-5.9c-1.7-2.9-3.7-5.7-5.8-8.4c-10.8-14-26.1-25.7-44.3-33.8
			c-9.2-4.1-19.1-7.3-29.4-9.5C169.1,3.1,158.1,2,147,2h0V0h0c45.8,0,85.9,19,108,47.5c2.1,2.8,4.1,5.7,5.9,8.6
			c1.3,2.1,2.4,4.4,3.5,6.6c0.3,0.7,0.7,1.4,1.1,2.1C271.3,74.5,281.9,81,294,81z"/>
		<path class="st1" d="M275.9,77.9c-0.1-0.1-0.2-0.1-0.4-0.2C275.6,77.8,275.7,77.8,275.9,77.9z"/>
		<path class="st1" d="M275.2,77.5c-0.3-0.2-0.5-0.3-0.8-0.5C274.7,77.2,275,77.3,275.2,77.5z"/>
	</g>
	<g>
		<path class="st0" d="M18.5,77.7c0.1-0.1,0.2-0.1,0.3-0.2C18.7,77.6,18.6,77.6,18.5,77.7z"/>
		<path class="st0" d="M16.7,78.7c0.2-0.1,0.3-0.2,0.5-0.3C17.1,78.5,16.9,78.6,16.7,78.7z"/>
		<path class="st0" d="M17.3,78.4c0.3-0.2,0.6-0.3,0.8-0.5C17.9,78.1,17.6,78.2,17.3,78.4z"/>
		<path class="st0" d="M19.5,77C19.5,77,19.5,77,19.5,77C19.5,77,19.5,77,19.5,77z"/>
		<path class="st2" d="M282.4,81H11.6c1.6-0.6,3.2-1.2,4.6-2h261.6C279.3,79.8,280.8,80.4,282.4,81z"/>
		<path class="st1" d="M16.7,78.7C16.7,78.7,16.7,78.7,16.7,78.7C16.7,78.7,16.7,78.7,16.7,78.7z"/>
		<path class="st1" d="M17.2,78.4C17.3,78.4,17.3,78.4,17.2,78.4C17.3,78.4,17.3,78.4,17.2,78.4z"/>
		<path class="st1" d="M147,0v2h0c-11.1,0-22.1,1.1-32.7,3.4c-10.3,2.2-20.2,5.4-29.4,9.5c-18.2,8.2-33.5,19.9-44.3,33.8
			c-2.1,2.7-4.1,5.6-5.8,8.4c-1.1,1.9-2.2,3.9-3.1,5.9l-0.3,0.5c-0.4,0.7-0.8,1.5-1.2,2.2c-0.8,1.4-1.7,2.7-2.7,3.9
			c-2.3,2.8-4.9,5.3-7.9,7.3c0,0,0,0,0,0c-0.3,0.2-0.5,0.3-0.8,0.5c-0.1,0.1-0.2,0.1-0.3,0.2c-0.1,0.1-0.2,0.1-0.4,0.2
			c-0.3,0.2-0.6,0.3-0.8,0.5c0,0,0,0-0.1,0c0,0-0.1,0-0.1,0.1c-0.2,0.1-0.4,0.2-0.6,0.4c-0.1,0-0.1,0.1-0.1,0.1c0,0,0,0-0.1,0
			c0,0-0.1,0-0.1,0c-1.5,0.8-3,1.4-4.6,2H0c12.1,0,22.7-6.5,28.4-16.2c0.4-0.7,0.8-1.4,1.1-2.1c1.1-2.2,2.2-4.5,3.5-6.6
			c1.8-3,3.8-5.8,5.9-8.6C61,19,101.2,0,147,0L147,0z"/>
		<path class="st1" d="M18.1,77.9c0.1-0.1,0.2-0.1,0.4-0.2C18.4,77.8,18.3,77.8,18.1,77.9z"/>
		<path class="st1" d="M18.8,77.5c0.3-0.2,0.5-0.3,0.8-0.5C19.3,77.2,19,77.3,18.8,77.5z"/>
	</g>
</g>
</svg>
